<?xml version="1.0" encoding="UTF-8"?>
<svg id="Layer_1" data-name="Layer 1" xmlns="http://www.w3.org/2000/svg" viewBox="0 0 1284.58 475.92">
  <defs>
    <style>
      .cls-1 {
        fill: #fff;
      }
    </style>
  </defs>
  <g>
    <path class="cls-1" d="M145.56,191.39v-61.93h-17.35v48.23h-17.94c-12.01,0-20.51-2.23-25.53-6.69-4.75-4.16-7.14-11.01-7.14-20.58,0-7.92,1.49-15.18,4.5-21.74l-18.58,3.03c-2.27,6.26-3.4,13.16-3.4,20.69,0,12.69,3.58,22.19,10.73,28.47,7.89,6.98,20.42,10.49,37.61,10.49h37.1v.03Z"/>
    <path class="cls-1" d="M117.39,119.5c2.4,0,4.46-.88,6.17-2.64,1.68-1.77,2.51-3.87,2.51-6.3s-.83-4.65-2.51-6.36c-1.68-1.77-3.74-2.64-6.17-2.64s-4.5.88-6.18,2.64c-1.67,1.75-2.51,3.88-2.51,6.36s.84,4.59,2.51,6.3c1.68,1.75,3.74,2.64,6.18,2.64Z"/>
    <path class="cls-1" d="M95.54,119.5c2.48,0,4.58-.88,6.3-2.64,1.67-1.77,2.51-3.87,2.51-6.3s-.84-4.65-2.51-6.36c-1.72-1.77-3.82-2.64-6.3-2.64s-4.5.88-6.17,2.64c-1.68,1.75-2.51,3.88-2.51,6.36s.84,4.59,2.51,6.3c1.67,1.75,3.72,2.64,6.17,2.64Z"/>
    <path class="cls-1" d="M195.74,191.39h91.11v-14.08c0-36.09-17.25-54.13-51.76-54.13-10.67,0-21.3,1.71-31.89,5.14l1.61,12.41c9.65-3.17,19.03-4.76,28.17-4.76,12.99,0,22.48,3.29,28.47,9.83,5.87,6.47,8.81,16.57,8.81,30.28v1.61h-13.31v-3.03c0-8.05-1.82-14.4-5.46-19.03-4.16-5.23-10.41-7.85-18.77-7.85-7.81,0-13.99,2.07-18.58,6.23-4.46,4.03-6.69,9.33-6.69,15.89,0,3.52,1.14,6.33,3.4,8.41-1.75-.42-3.81-.64-6.17-.64h-22.11v-79.14h-17.36v92.84h30.54ZM231.56,158.73c7.46,0,11.19,5.23,11.19,15.68v3.79h-8.67c-8.27,0-12.41-3.48-12.41-10.41,0-6.05,3.3-9.07,9.91-9.07h-.01Z"/>
    <path class="cls-1" d="M332.4,191.39h10.28v1.98c0,11.66-7.62,17.49-22.82,17.49-6.82,0-13.66-.75-20.51-2.24l-1.1,14.21c6.78,1.16,13.45,1.74,20.06,1.74,13.98,0,24.52-3.22,31.63-9.65,6.39-5.73,9.57-13.5,9.57-23.27v-.26h53.03v-61.93h-17.35v48.23h-35.68v-45.33c-8.01-3.04-17.19-4.56-27.52-4.56-11.44,0-20.29,3.35-26.56,10.02-5.58,6.01-8.36,13.67-8.36,23.01,0,20.36,11.76,30.54,35.29,30.54h.03ZM318.64,146.51c2.82-3.35,6.66-5.01,11.51-5.01s9.2.8,12.54,2.38v33.82h-8.41c-13.21,0-19.8-6.15-19.8-18.45,0-5.23,1.39-9.47,4.17-12.73h-.01Z"/>
    <path class="cls-1" d="M375.48,204.83c-1.67,1.77-2.51,3.87-2.51,6.3s.84,4.65,2.51,6.37c1.68,1.71,3.74,2.58,6.17,2.58s4.59-.88,6.3-2.64c1.68-1.71,2.51-3.81,2.51-6.3s-.84-4.61-2.51-6.36c-1.71-1.71-3.81-2.58-6.3-2.58s-4.46.88-6.17,2.64h0Z"/>
    <path class="cls-1" d="M397.33,204.83c-1.68,1.77-2.51,3.87-2.51,6.3s.83,4.65,2.51,6.37c1.68,1.71,3.74,2.58,6.17,2.58s4.46-.88,6.18-2.64c1.67-1.75,2.51-3.85,2.51-6.3s-.84-4.61-2.51-6.36c-1.68-1.71-3.74-2.58-6.18-2.58s-4.46.88-6.17,2.64h0Z"/>
    <path class="cls-1" d="M525.12,119.5c2.4,0,4.46-.88,6.17-2.64,1.68-1.77,2.51-3.87,2.51-6.3s-.84-4.65-2.51-6.36c-1.68-1.77-3.74-2.64-6.17-2.64s-4.46.88-6.17,2.64c-1.68,1.75-2.51,3.88-2.51,6.36s.84,4.59,2.51,6.3c1.68,1.75,3.74,2.64,6.17,2.64Z"/>
    <path class="cls-1" d="M503.26,119.5c2.49,0,4.59-.88,6.3-2.64,1.68-1.77,2.51-3.87,2.51-6.3s-.84-4.65-2.51-6.36c-1.71-1.77-3.81-2.64-6.3-2.64s-4.46.88-6.17,2.64c-1.68,1.75-2.51,3.88-2.51,6.36s.84,4.59,2.51,6.3c1.68,1.75,3.74,2.64,6.17,2.64Z"/>
    <path class="cls-1" d="M491.55,191.39h49.96c8.99,0,14.86-3.07,17.55-9.2,2.27,6.82,8.11,10.22,17.49,10.22,10.11,0,16.74-3.36,19.87-10.09,1.88,3.5,4.69,5.94,8.41,7.26,3.48,1.2,8.79,1.8,15.94,1.8h21.74c1.32-9.34,1.98-19.57,1.98-30.67,0-12.51-1.42-24.66-4.24-36.45l-16.97,2.32c2.58,11.4,3.87,23.17,3.87,35.29,0,5.62-.32,10.89-.97,15.81h-3.4c-6.17,0-10.28-.8-12.34-2.38-2.14-1.64-3.22-5.03-3.22-10.17v-33.05h-16.71v29.76c0,11.24-3.5,16.84-10.54,16.84-3.74,0-6.21-1.35-7.46-4.05-1.07-2.27-1.61-6.57-1.61-12.92v-24.36h-17.36v23.98c0,6.3-.93,10.63-2.77,12.99-1.71,2.23-4.76,3.35-9.14,3.35h-16.26v-48.23h-17.36v48.23h-25.07c-.77-14.32-4.87-25.66-12.28-34.02-7.02-7.89-17.51-13.67-31.44-17.36l-4.19,14.53c19.93,5.05,30.28,17.34,31.05,36.84h-39.09v13.7h64.55v.03Z"/>
    <polygon class="cls-1" points="693.57 177.69 652.87 177.69 652.87 191.39 710.93 191.39 710.93 98.54 693.57 98.54 693.57 177.69"/>
    <polygon class="cls-1" points="683.92 167.8 664.7 97.65 647.47 100.02 666.31 167.8 683.92 167.8"/>
    <rect class="cls-1" x="731.84" y="98.54" width="17.36" height="92.84"/>
    <path class="cls-1" d="M76.08,262.22c-1.68,1.75-2.51,3.88-2.51,6.36s.84,4.59,2.51,6.3c1.68,1.75,3.74,2.64,6.17,2.64s4.59-.88,6.3-2.64c1.68-1.77,2.51-3.87,2.51-6.3s-.84-4.65-2.51-6.36c-1.71-1.77-3.81-2.64-6.3-2.64s-4.46.88-6.17,2.64Z"/>
    <path class="cls-1" d="M97.95,262.22c-1.68,1.75-2.51,3.88-2.51,6.36s.84,4.59,2.51,6.3c1.68,1.75,3.74,2.64,6.17,2.64s4.5-.88,6.17-2.64c1.68-1.77,2.51-3.87,2.51-6.3s-.84-4.65-2.51-6.36c-1.68-1.77-3.74-2.64-6.17-2.64s-4.46.88-6.17,2.64Z"/>
    <path class="cls-1" d="M330.92,360.19c-2.4,0-4.46.88-6.17,2.64-1.68,1.77-2.51,3.87-2.51,6.3s.83,4.65,2.51,6.37c1.68,1.71,3.74,2.58,6.17,2.58s4.46-.88,6.18-2.64c1.67-1.75,2.51-3.85,2.51-6.3s-.84-4.61-2.51-6.36c-1.68-1.71-3.74-2.58-6.18-2.58h0Z"/>
    <path class="cls-1" d="M309.05,360.19c-2.4,0-4.46.88-6.17,2.64-1.67,1.77-2.51,3.87-2.51,6.3s.84,4.65,2.51,6.37c1.68,1.71,3.74,2.58,6.17,2.58s4.59-.88,6.3-2.64c1.68-1.71,2.51-3.81,2.51-6.3s-.84-4.61-2.51-6.36c-1.71-1.71-3.81-2.58-6.3-2.58h0Z"/>
    <path class="cls-1" d="M405.3,335.7h-71.61v-48.23h-17.36v48.23H122.43v-45.33c-8.01-3.04-17.19-4.56-27.52-4.56-11.44,0-20.29,3.35-26.55,10.02-5.58,6.01-8.36,13.67-8.36,23.01,0,20.36,11.76,30.54,35.29,30.54h327.35v-61.93h-17.36v48.23h0ZM105.59,335.7h-8.43c-13.19,0-19.8-6.15-19.8-18.45,0-5.23,1.39-9.47,4.17-12.73,2.82-3.35,6.66-5.01,11.51-5.01s9.2.8,12.54,2.38v33.82Z"/>
    <path class="cls-1" d="M404.21,360.06c-2.49,0-4.63.88-6.43,2.64-1.75,1.8-2.64,3.94-2.64,6.43s.88,4.74,2.64,6.49c1.8,1.75,3.94,2.64,6.43,2.64s4.66-.9,6.43-2.71c1.8-1.77,2.71-3.9,2.71-6.43s-.9-4.66-2.71-6.43c-1.75-1.77-3.9-2.64-6.43-2.64h0Z"/>
    <path class="cls-1" d="M526.75,360.06c-2.49,0-4.63.88-6.43,2.64-1.75,1.8-2.64,3.94-2.64,6.43s.88,4.74,2.64,6.49c1.8,1.75,3.94,2.64,6.43,2.64s4.66-.9,6.43-2.71c1.8-1.77,2.71-3.9,2.71-6.43s-.9-4.66-2.71-6.43c-1.75-1.77-3.9-2.64-6.43-2.64h0Z"/>
    <path class="cls-1" d="M624.99,256.36c1.58-1.58,2.38-3.53,2.38-5.85s-.8-4.27-2.38-5.85c-1.55-1.64-3.48-2.45-5.79-2.45s-4.14.81-5.72,2.45c-1.55,1.58-2.32,3.53-2.32,5.85s.77,4.27,2.32,5.85c1.58,1.64,3.49,2.45,5.72,2.45s4.24-.81,5.79-2.45Z"/>
    <path class="cls-1" d="M630.26,277.51c2.4,0,4.46-.88,6.17-2.64,1.68-1.77,2.51-3.87,2.51-6.3s-.84-4.65-2.51-6.36c-1.68-1.77-3.74-2.64-6.17-2.64s-4.59.88-6.3,2.64c-1.68,1.75-2.51,3.88-2.51,6.36s.84,4.59,2.51,6.3c1.71,1.75,3.81,2.64,6.3,2.64Z"/>
    <path class="cls-1" d="M602.23,262.22c-1.68,1.75-2.51,3.88-2.51,6.36s.84,4.59,2.51,6.3c1.68,1.75,3.74,2.64,6.17,2.64s4.5-.88,6.17-2.64c1.68-1.77,2.51-3.87,2.51-6.3s-.84-4.65-2.51-6.36c-1.68-1.77-3.74-2.64-6.17-2.64s-4.46.88-6.17,2.64Z"/>
    <path class="cls-1" d="M692.12,335.7h-27.2c.42-6.43.64-12.09.64-16.97,0-12.51-1.42-24.66-4.24-36.45l-16.97,2.32c2.58,11.4,3.87,23.17,3.87,35.29,0,5.62-.32,10.89-.97,15.81h-3.4c-6.17,0-10.28-.8-12.34-2.38-2.14-1.64-3.22-5.03-3.22-10.17v-33.05h-16.71v29.76c0,11.24-3.5,16.84-10.54,16.84-3.74,0-6.21-1.35-7.46-4.05-1.07-2.27-1.61-6.57-1.61-12.92v-24.36h-17.36v23.98c0,6.3-.93,10.63-2.77,12.99-1.71,2.23-4.76,3.35-9.14,3.35h-17.48v-48.23h-17.36v48.23h-66.92v-79.14h-17.36v92.84h119.01c8.99,0,14.86-3.07,17.55-9.2,2.27,6.82,8.11,10.22,17.49,10.22,10.11,0,16.74-3.36,19.87-10.09,1.88,3.5,4.69,5.94,8.41,7.26,3.48,1.2,8.79,1.8,15.94,1.8h67.63v-92.84h-17.35v79.14h-.01Z"/>
    <rect class="cls-1" x="731.84" y="256.56" width="17.36" height="92.84"/>
  </g>
  <g>
    <g>
      <rect class="cls-1" x="1080.15" y="197.25" width="61.36" height="197.04" rx="30.67" ry="30.67" transform="translate(116.21 872.11) rotate(-45)"/>
      <rect class="cls-1" x="928.28" y="45.4" width="61.36" height="197.04" rx="30.67" ry="30.67" transform="translate(179.11 720.24) rotate(-45)"/>
    </g>
    <rect class="cls-1" x="936.37" y="129.65" width="61.36" height="317.38" rx="30.67" ry="30.67" transform="translate(79.44 768.41) rotate(-45.01)"/>
    <g>
      <rect class="cls-1" x="1100.5" y="60.38" width="61.36" height="238.69" rx="30.67" ry="30.67" transform="translate(204.34 852.66) rotate(-45.01)"/>
      <rect class="cls-1" x="982.25" y="30.83" width="61.36" height="61.36" rx="30.67" ry="30.67" transform="translate(253.3 734.4) rotate(-45.01)"/>
    </g>
    <rect class="cls-1" x="840.44" y="255.75" width="61.36" height="146.24" rx="30.67" ry="30.67" transform="translate(22.67 712.45) rotate(-45.01)"/>
    <rect class="cls-1" x="925.99" y="383.73" width="61.36" height="61.36" rx="30.67" ry="30.67" transform="translate(-12.76 798.01) rotate(-45.01)"/>
  </g>
</svg>