<?xml version="1.0" encoding="UTF-8"?>
<svg id="Layer_1" data-name="Layer 1" xmlns="http://www.w3.org/2000/svg" viewBox="0 0 140 140">
  <defs>
    <style>
      .cls-1 {
        fill: #2c3389;
      }

      .cls-2 {
        fill: #225a9b;
      }

      .cls-3 {
        fill: #1882ad;
      }

      .cls-4 {
        fill: #42c38b;
      }
    </style>
  </defs>
  <g>
    <rect class="cls-3" x="90.67" y="56.57" width="20.24" height="65" rx="10.12" ry="10.12" transform="translate(-33.46 97.36) rotate(-45)"/>
    <rect class="cls-3" x="40.57" y="6.48" width="20.24" height="65" rx="10.12" ry="10.12" transform="translate(-12.72 47.26) rotate(-45)"/>
  </g>
  <rect class="cls-2" x="43.24" y="34.27" width="20.24" height="104.69" rx="10.12" ry="10.12" transform="translate(-45.62 63.12) rotate(-45.01)"/>
  <g>
    <rect class="cls-4" x="97.38" y="11.42" width="20.24" height="78.74" rx="10.12" ry="10.12" transform="translate(-4.42 90.91) rotate(-45.01)"/>
    <rect class="cls-4" x="58.37" y="1.67" width="20.24" height="20.24" rx="10.12" ry="10.12" transform="translate(11.73 51.9) rotate(-45.01)"/>
  </g>
  <rect class="cls-1" x="11.59" y="75.87" width="20.24" height="48.24" rx="10.12" ry="10.12" transform="translate(-64.35 44.66) rotate(-45.01)"/>
  <rect class="cls-1" x="39.81" y="118.08" width="20.24" height="20.24" rx="10.12" ry="10.12" transform="translate(-76.04 72.88) rotate(-45.01)"/>
</svg>